<mxfile host="app.diagrams.net" modified="2023-05-19T16:56:41.838Z" agent="Mozilla/5.0 (Windows NT 10.0; Win64; x64) AppleWebKit/537.36 (KHTML, like Gecko) Chrome/115.0.0.0 Safari/537.36 Edg/115.0.0.0" etag="y6s2eksnLgNYWvFb1kxn" version="21.3.2" type="github">
  <diagram id="prtHgNgQTEPvFCAcTncT" name="Page-1">
    <mxGraphModel dx="989" dy="521" grid="1" gridSize="10" guides="1" tooltips="1" connect="1" arrows="1" fold="1" page="1" pageScale="1" pageWidth="827" pageHeight="1169" math="0" shadow="0">
      <root>
        <mxCell id="0" />
        <mxCell id="1" parent="0" />
        <mxCell id="dNxyNK7c78bLwvsdeMH5-11" value="HỆ THỐNG QUẢN LÝ ĐIỂM MÔN TỔ HỢP VÀ VIỆC CẦN LÀM" style="swimlane;html=1;startSize=20;horizontal=1;containerType=tree;glass=0;" parent="1" vertex="1">
          <mxGeometry x="59" y="80" width="710" height="290" as="geometry">
            <mxRectangle x="59" y="80" width="390" height="30" as="alternateBounds" />
          </mxGeometry>
        </mxCell>
        <mxCell id="mojuZqVwokFjxSyagzFI-21" style="edgeStyle=orthogonalEdgeStyle;rounded=0;orthogonalLoop=1;jettySize=auto;html=1;entryX=0;entryY=0.5;entryDx=0;entryDy=0;" edge="1" parent="dNxyNK7c78bLwvsdeMH5-11" source="mojuZqVwokFjxSyagzFI-1" target="mojuZqVwokFjxSyagzFI-6">
          <mxGeometry relative="1" as="geometry" />
        </mxCell>
        <mxCell id="mojuZqVwokFjxSyagzFI-22" style="edgeStyle=orthogonalEdgeStyle;rounded=0;orthogonalLoop=1;jettySize=auto;html=1;entryX=0;entryY=0.5;entryDx=0;entryDy=0;" edge="1" parent="dNxyNK7c78bLwvsdeMH5-11" source="mojuZqVwokFjxSyagzFI-1" target="mojuZqVwokFjxSyagzFI-7">
          <mxGeometry relative="1" as="geometry" />
        </mxCell>
        <mxCell id="mojuZqVwokFjxSyagzFI-1" value="&lt;b&gt;GradeMaster&lt;/b&gt;" style="rounded=1;whiteSpace=wrap;html=1;arcSize=20;" vertex="1" parent="dNxyNK7c78bLwvsdeMH5-11">
          <mxGeometry x="135" y="40" width="120" height="50" as="geometry" />
        </mxCell>
        <mxCell id="mojuZqVwokFjxSyagzFI-8" style="edgeStyle=orthogonalEdgeStyle;rounded=0;orthogonalLoop=1;jettySize=auto;html=1;entryX=0;entryY=0.5;entryDx=0;entryDy=0;" edge="1" parent="dNxyNK7c78bLwvsdeMH5-11" source="mojuZqVwokFjxSyagzFI-6" target="mojuZqVwokFjxSyagzFI-9">
          <mxGeometry relative="1" as="geometry">
            <mxPoint x="415" y="80" as="targetPoint" />
            <Array as="points">
              <mxPoint x="415" y="155" />
              <mxPoint x="415" y="60" />
            </Array>
          </mxGeometry>
        </mxCell>
        <mxCell id="mojuZqVwokFjxSyagzFI-15" style="edgeStyle=orthogonalEdgeStyle;rounded=0;orthogonalLoop=1;jettySize=auto;html=1;exitX=1;exitY=0.5;exitDx=0;exitDy=0;entryX=0;entryY=0.5;entryDx=0;entryDy=0;" edge="1" parent="dNxyNK7c78bLwvsdeMH5-11" source="mojuZqVwokFjxSyagzFI-6" target="mojuZqVwokFjxSyagzFI-12">
          <mxGeometry relative="1" as="geometry" />
        </mxCell>
        <mxCell id="mojuZqVwokFjxSyagzFI-18" style="edgeStyle=orthogonalEdgeStyle;rounded=0;orthogonalLoop=1;jettySize=auto;html=1;entryX=0;entryY=0.5;entryDx=0;entryDy=0;" edge="1" parent="dNxyNK7c78bLwvsdeMH5-11" source="mojuZqVwokFjxSyagzFI-6" target="mojuZqVwokFjxSyagzFI-17">
          <mxGeometry relative="1" as="geometry" />
        </mxCell>
        <mxCell id="mojuZqVwokFjxSyagzFI-6" value="&lt;b&gt;Điểm Môn Tổ Hợp&lt;/b&gt;" style="rounded=1;whiteSpace=wrap;html=1;arcSize=20;" vertex="1" parent="dNxyNK7c78bLwvsdeMH5-11">
          <mxGeometry x="255" y="130" width="120" height="50" as="geometry" />
        </mxCell>
        <mxCell id="mojuZqVwokFjxSyagzFI-20" style="edgeStyle=orthogonalEdgeStyle;rounded=0;orthogonalLoop=1;jettySize=auto;html=1;entryX=0;entryY=0.5;entryDx=0;entryDy=0;" edge="1" parent="dNxyNK7c78bLwvsdeMH5-11" source="mojuZqVwokFjxSyagzFI-7" target="mojuZqVwokFjxSyagzFI-19">
          <mxGeometry relative="1" as="geometry" />
        </mxCell>
        <mxCell id="mojuZqVwokFjxSyagzFI-7" value="&lt;b&gt;Bảng Quản Lý Việc Cần Làm&lt;/b&gt;" style="rounded=1;whiteSpace=wrap;html=1;arcSize=20;" vertex="1" parent="dNxyNK7c78bLwvsdeMH5-11">
          <mxGeometry x="255" y="210" width="120" height="50" as="geometry" />
        </mxCell>
        <mxCell id="mojuZqVwokFjxSyagzFI-9" value="&lt;b&gt;Nhập Điểm&lt;/b&gt;" style="rounded=1;whiteSpace=wrap;html=1;arcSize=20;" vertex="1" parent="dNxyNK7c78bLwvsdeMH5-11">
          <mxGeometry x="455" y="40" width="120" height="40" as="geometry" />
        </mxCell>
        <mxCell id="mojuZqVwokFjxSyagzFI-12" value="&lt;b&gt;Điểm Trung Bình&lt;/b&gt;" style="rounded=1;whiteSpace=wrap;html=1;arcSize=20;" vertex="1" parent="dNxyNK7c78bLwvsdeMH5-11">
          <mxGeometry x="455" y="90" width="120" height="40" as="geometry" />
        </mxCell>
        <mxCell id="mojuZqVwokFjxSyagzFI-17" value="&lt;b&gt;Biểu Đồ Đường Biểu Thị Điểm&lt;/b&gt;" style="rounded=1;whiteSpace=wrap;html=1;arcSize=20;" vertex="1" parent="dNxyNK7c78bLwvsdeMH5-11">
          <mxGeometry x="455" y="135" width="120" height="40" as="geometry" />
        </mxCell>
        <mxCell id="mojuZqVwokFjxSyagzFI-19" value="&lt;b&gt;Bảng Việc Cần Làm Được Người Dùng Thêm&lt;/b&gt;" style="rounded=1;whiteSpace=wrap;html=1;arcSize=20;" vertex="1" parent="dNxyNK7c78bLwvsdeMH5-11">
          <mxGeometry x="455" y="210" width="120" height="50" as="geometry" />
        </mxCell>
      </root>
    </mxGraphModel>
  </diagram>
</mxfile>
